<?xml version="1.0" encoding="utf-8"?>
<!-- Generator: Adobe Illustrator 21.1.0, SVG Export Plug-In . SVG Version: 6.00 Build 0)  -->
<svg version="1.1" xmlns="http://www.w3.org/2000/svg" xmlns:xlink="http://www.w3.org/1999/xlink" x="0px" y="0px"
	 viewBox="0 0 552 134" style="enable-background:new 0 0 552 134;" xml:space="preserve">
<style type="text/css">
	.st0{display:none;}
	.st1{display:inline;}
	.st2{font-family:'LeagueSpartan-Bold';}
	.st3{font-size:77.6208px;}
	.st4{fill:url(#SVGID_1_);}
	.st5{fill:url(#SVGID_2_);}
	.st6{fill:url(#SVGID_3_);}
	.st7{fill:url(#SVGID_4_);}
	.st8{fill:url(#SVGID_5_);}
	.st9{fill:url(#SVGID_6_);}
	.st10{fill:url(#SVGID_7_);}
	.st11{fill:url(#SVGID_8_);}
</style>
<g id="MockFlow" class="st0">
	<g class="st1">
		<text transform="matrix(1 0 0 1 130.9424 97.1436)" class="st2 st3">MockFlow</text>
		
			<linearGradient id="SVGID_1_" gradientUnits="userSpaceOnUse" x1="1087.3101" y1="522.1423" x2="1114.6387" y2="522.1423" gradientTransform="matrix(-1 0 0 -1 1186.5743 596)">
			<stop  offset="0" style="stop-color:#1B9CE2"/>
			<stop  offset="1" style="stop-color:#1B7CE2"/>
		</linearGradient>
		<polygon class="st4" points="71.9,84 99.3,63.8 71.9,63.8 		"/>
		<linearGradient id="SVGID_2_" gradientUnits="userSpaceOnUse" x1="-6.6489" y1="67.3225" x2="71.9369" y2="67.3225">
			<stop  offset="0" style="stop-color:#1B7CE2"/>
			<stop  offset="1" style="stop-color:#1B9CE2"/>
		</linearGradient>
		<polygon class="st5" points="32.6,67.3 71.9,110.1 71.9,24.5 		"/>
		
			<linearGradient id="SVGID_3_" gradientUnits="userSpaceOnUse" x1="886.413" y1="67.3225" x2="964.999" y2="67.3225" gradientTransform="matrix(-1 0 0 1 978 0)">
			<stop  offset="0" style="stop-color:#1B7CE2"/>
			<stop  offset="1" style="stop-color:#1B9CE2"/>
		</linearGradient>
		<polygon class="st6" points="13,24.5 13,110.1 52.3,67.3 		"/>
		<linearGradient id="SVGID_4_" gradientUnits="userSpaceOnUse" x1="71.9565" y1="34.05" x2="113.5435" y2="34.05">
			<stop  offset="0" style="stop-color:#1B7CE2"/>
			<stop  offset="1" style="stop-color:#1B9CE2"/>
		</linearGradient>
		<polygon class="st7" points="101.7,43.6 72,43.6 72,24.5 113.5,24.5 		"/>
	</g>
</g>
<g id="Layer_2">
	<g>
		<g>
			<path d="M185.5,59.2h-0.4L172,96.8h-8.7l-13.1-37.6h-0.4l-3,38h-14.6l5.7-64h15.5l14.2,36.9l14.2-36.9h15.5l5.7,64h-14.6
				L185.5,59.2z"/>
			<path d="M230.1,56.2c13.2,0,23.8,8.7,23.8,21.1c0,12.3-10,21-23.8,21c-14.4,0-24-8.8-24-21C206.2,64.9,216.7,56.2,230.1,56.2z
				 M230.1,86.6c5.4,0,9.2-3.9,9.2-9.3c0-5.5-4.1-9.4-9.2-9.4c-5.2,0-9.3,3.9-9.3,9.4C220.7,82.7,224.5,86.6,230.1,86.6z"/>
			<path d="M272.1,77.2c0,5.5,4.3,9.9,9.5,9.9c4.1,0,6.7-1.9,6.7-1.9l4.7,9.5c0,0-4.5,3.6-13.4,3.6c-11.5,0-22-9.3-22-21
				c0-11.7,10.5-21.2,22-21.2c8.8,0,13.4,3.7,13.4,3.7l-4.7,9.4c0,0-2.6-1.9-6.7-1.9C276.3,67.4,272.1,71.8,272.1,77.2z"/>
			<path d="M325,76.3l20.8,20.8h-17.7l-15.9-15.9v15.9h-13.7V30.4h13.7v40.8l13.9-13.9h17.9L325,76.3z"/>
			<path d="M385.6,45.9h-22.4v12.7h20.7v12.8h-20.7v25.7h-14.6v-64h37V45.9z"/>
			<path d="M392.6,30.4h13.7v66.8h-13.7V30.4z"/>
			<path d="M436.8,56.2c13.2,0,23.8,8.7,23.8,21.1c0,12.3-10,21-23.8,21c-14.4,0-24-8.8-24-21C412.8,64.9,423.3,56.2,436.8,56.2z
				 M436.7,86.6c5.4,0,9.2-3.9,9.2-9.3c0-5.5-4.1-9.4-9.2-9.4c-5.2,0-9.3,3.9-9.3,9.4C427.4,82.7,431.1,86.6,436.7,86.6z"/>
			<path d="M481.7,97.1l-21.3-39.8h15.8l9.7,21.5l9.5-21.5h9.5l9.5,21.5l9.7-21.5H540l-21.3,39.8h-9.3l-9.2-20.6L491,97.1H481.7z"/>
		</g>
		
			<linearGradient id="SVGID_5_" gradientUnits="userSpaceOnUse" x1="1087.3101" y1="522.1423" x2="1114.6387" y2="522.1423" gradientTransform="matrix(-1 0 0 -1 1186.5743 596)">
			<stop  offset="0" style="stop-color:#1B9CE2"/>
			<stop  offset="1" style="stop-color:#1B7CE2"/>
		</linearGradient>
		<polygon class="st8" points="71.9,84 99.3,63.8 71.9,63.8 		"/>
		<linearGradient id="SVGID_6_" gradientUnits="userSpaceOnUse" x1="-6.6489" y1="67.3225" x2="71.9369" y2="67.3225">
			<stop  offset="0" style="stop-color:#1B7CE2"/>
			<stop  offset="1" style="stop-color:#1B9CE2"/>
		</linearGradient>
		<polygon class="st9" points="32.6,67.3 71.9,110.1 71.9,24.5 		"/>
		
			<linearGradient id="SVGID_7_" gradientUnits="userSpaceOnUse" x1="886.413" y1="67.3225" x2="964.999" y2="67.3225" gradientTransform="matrix(-1 0 0 1 978 0)">
			<stop  offset="0" style="stop-color:#1B7CE2"/>
			<stop  offset="1" style="stop-color:#1B9CE2"/>
		</linearGradient>
		<polygon class="st10" points="13,24.5 13,110.1 52.3,67.3 		"/>
		<linearGradient id="SVGID_8_" gradientUnits="userSpaceOnUse" x1="71.9565" y1="34.05" x2="113.5435" y2="34.05">
			<stop  offset="0" style="stop-color:#1B7CE2"/>
			<stop  offset="1" style="stop-color:#1B9CE2"/>
		</linearGradient>
		<polygon class="st11" points="101.7,43.6 72,43.6 72,24.5 113.5,24.5 		"/>
	</g>
</g>
</svg>
