<svg xmlns="http://www.w3.org/2000/svg" version="1.1" xmlns:xlink="http://www.w3.org/1999/xlink" xmlns:svgjs="http://svgjs.dev/svgjs" width="1500" height="939" viewBox="0 0 1500 939"><g transform="matrix(1,0,0,1,-0.9090909090909918,176.7856593352883)"><svg viewBox="0 0 396 248" data-background-color="#ffffff" preserveAspectRatio="xMidYMid meet" height="939" width="1500" xmlns="http://www.w3.org/2000/svg" xmlns:xlink="http://www.w3.org/1999/xlink"><g id="tight-bounds" transform="matrix(1,0,0,1,0.2400000000000091,0.4000000000000057)"><svg viewBox="0 0 395.52 247.2" height="247.2" width="395.52"><rect width="395.52" height="247.2" fill="url(#1f0ee978-226b-444b-9108-050ca50dd2f4)" mask="url(#606e391e-546c-4708-9531-ef58b914cd3c)" data-fill-palette-color="tertiary"></rect><g><svg></svg></g><g><svg viewBox="0 0 395.52 247.2" height="247.2" width="395.52"><g transform="matrix(1,0,0,1,76.93398192426429,47.215199999999996)"><svg viewBox="0 0 241.6520361514714 152.7696" height="152.7696" width="241.6520361514714"><g><svg viewBox="0 0 245.65351679999995 155.29928941548778" height="152.7696" width="241.6520361514714"><g><rect width="245.65351679999995" height="5.142840469616027" x="0" y="79.66555373942634" fill="#556970" opacity="1" stroke-width="0" stroke="transparent" fill-opacity="1" class="rect-yte-0" data-fill-palette-color="secondary" rx="1%" id="yte-0" data-palette-color="#556970"></rect></g><g transform="matrix(1,0,0,1,0.6110783999999825,98.27132737557648)"><svg viewBox="0 0 244.43135999999998 57.02796203991131" height="57.02796203991131" width="244.43135999999998"><g id="textblocktransform"><svg viewBox="0 0 244.43135999999998 57.02796203991131" height="57.02796203991131" width="244.43135999999998" id="textblock"><g><svg viewBox="0 0 244.43135999999998 57.02796203991131" height="57.02796203991131" width="244.43135999999998"><g transform="matrix(1,0,0,1,0,0)"><svg width="244.43135999999998" viewBox="-3.8 -32 202.92000000000002 47.35" height="57.02796203991131" data-palette-color="#556970"><path d="M1.8 7.5L1.8 7.5Q-0.85 7.5-2.33 5.95-3.8 4.4-3.8 1.75L-3.8 1.75Q-3.8 1.1-3.73 0.5-3.65-0.1-3.55-0.6L-3.55-0.6Q-2.65-4.85 1-10.35L1-10.35Q3.4-14.05 6.38-17.05 9.35-20.05 12.53-21.85 15.7-23.65 18.65-23.65L18.65-23.65Q20.35-23.65 21.15-22.73 21.95-21.8 21.95-20.25L21.95-20.25Q21.95-18.45 21.05-16.1L21.05-16.1Q20.1-13.75 18.73-11.68 17.35-9.6 16.05-8.65L16.05-8.65Q15.85-8.45 15.6-8.45L15.6-8.45Q15.4-8.45 15.4-8.7L15.4-8.7Q15.4-9.25 16.1-9.8L16.1-9.8Q16.75-10.25 17.53-11.38 18.3-12.5 19.03-13.9 19.75-15.3 20.23-16.7 20.7-18.1 20.7-19.1L20.7-19.1Q20.7-21.5 18.3-21.5L18.3-21.5Q13.75-21.5 9.5-18L9.5-18Q6.65-15.7 4.33-12.63 2-9.55 0.38-6.35-1.25-3.15-2-0.3L-2-0.3Q-2.3 0.8-2.3 1.9L-2.3 1.9Q-2.3 4.05-1.07 5.3 0.15 6.55 2.25 6.35L2.25 6.35Q6.1 6 10.75 3.3L10.75 3.3Q13.8 1.5 16.65-0.75 19.5-3 21.95-5.48 24.4-7.95 26.2-10.25L26.2-10.25 23.8-9.9Q22.7-9.75 21.98-9.58 21.25-9.4 21-9.3L21-9.3Q20.9-9.25 20.75-9.25L20.75-9.25Q20.45-9.25 20.45-9.7L20.45-9.7Q20.45-10.15 20.78-10.75 21.1-11.35 21.5-11.55L21.5-11.55Q22.85-12.25 27.95-12.6L27.95-12.6Q30.15-15.1 32.5-17.6L32.5-17.6Q35-20.3 36.7-22.2 38.4-24.1 39.73-25.73 41.05-27.35 42.3-29.1L42.3-29.1Q42.7-29.65 43.1-29.65L43.1-29.65Q43.4-29.65 43.4-29.35L43.4-29.35Q43.4-29.05 43.2-28.85L43.2-28.85Q41.5-26.45 39.65-24.15 37.8-21.85 35.58-19.28 33.35-16.7 30.55-13.45L30.55-13.45 29.9-12.7 32.2-12.8 36.6-12.95Q36.55-12.85 37.05-13.88 37.55-14.9 38.55-17.05L38.55-17.05Q39.95-19.95 41.03-22.23 42.1-24.5 42.8-26.15L42.8-26.15Q44.25-29.4 44.3-30.65L44.3-30.65Q44.35-31.3 44.95-31.65 45.55-32 46.3-32L46.3-32Q46.85-32 47.33-31.83 47.8-31.65 47.9-31.4L47.9-31.4Q48.15-30.95 47.15-29L47.15-29Q46.5-27.65 45.55-25.9 44.6-24.15 43.4-22L43.4-22Q41.75-19.05 40.58-16.8 39.4-14.55 38.7-13L38.7-13 42.55-13.2 42.7-13.2Q43.15-13.2 43.15-12.9L43.15-12.9Q43.15-12.7 42.9-12.5 42.65-12.3 42.25-12.25L42.25-12.25 38.2-11.95Q38.15-11.85 37.65-10.75 37.15-9.65 36.2-7.6L36.2-7.6Q34.3-3.4 34.3-0.45L34.3-0.45Q34.3 1.55 35.8 1.55L35.8 1.55Q36.2 1.55 36.88 1.18 37.55 0.8 38.18 0.3 38.8-0.2 39.1-0.6L39.1-0.6Q39.45-1.1 39.8-1.1L39.8-1.1Q40-1.1 40-0.9L40-0.9Q40-0.65 39.6-0.25L39.6-0.25Q39.1 0.3 38.3 1 37.5 1.7 36.7 2.2 35.9 2.7 35.35 2.75L35.35 2.75Q32.15 2.95 32.15-0.15L32.15-0.15Q32.15-2 33.08-4.4 34-6.8 35.4-10L35.4-10 36.2-11.8Q34.5-11.65 31.55-11.05L31.55-11.05Q30.5-10.85 29.68-10.73 28.85-10.6 28.3-10.5L28.3-10.5Q25.35-7.15 21.95-3.95 18.55-0.75 15.03 1.85 11.5 4.45 8.13 5.98 4.75 7.5 1.8 7.5ZM40.75 1.05L40.75 1.05Q40.1 1.05 40.1-0.1L40.1-0.1Q40.1-1.05 40.55-1.95L40.55-1.95Q41.7-4.15 42.65-6.3L42.65-6.3Q43.3-7.6 43.87-8.8 44.45-10 44.95-11L44.95-11Q45.25-11.3 45.55-11.3L45.55-11.3Q46.2-11.3 45.95-10.7L45.95-10.7Q45.85-10.35 45.67-9.88 45.5-9.4 45.25-8.75L45.25-8.75Q44.45-6.65 44.3-5.8L44.3-5.8Q45.7-7.05 47.17-8.13 48.65-9.2 49.95-9.9 51.25-10.6 52.15-10.6L52.15-10.6Q52.95-10.6 52.95-9.95L52.95-9.95Q52.95-9.4 52.45-8.78 51.95-8.15 51.45-8.15L51.45-8.15Q51.2-8.15 51.05-8.3L51.05-8.3Q50.9-8.35 50.45-8.35L50.45-8.35Q48.85-8.35 47.1-6.8L47.1-6.8Q45.25-5.25 43.75-3.08 42.25-0.9 41.55 0.7L41.55 0.7Q41.2 1.05 40.75 1.05ZM55.75-10.95L55.75-10.95Q55.1-10.95 55.1-11.25L55.1-11.25Q55.1-11.5 55.47-11.98 55.85-12.45 56.35-12.8L56.35-12.8Q57.45-13.5 58.07-14 58.7-14.5 59.6-15.7L59.6-15.7Q59.65-15.6 59.65-15.3L59.65-15.3Q59.65-14.65 59.12-13.73 58.6-12.8 57.95-12.05 57.3-11.3 56.8-11.1L56.8-11.1Q56.35-10.95 55.75-10.95ZM51.3 1.3L51.3 1.3Q50.9 1.3 50.55 1 50.2 0.7 50.2 0.2L50.2 0.2Q50.2-0.85 51.65-3.65L51.65-3.65 52.2-4.75Q52.3-4.85 52.47-5.25 52.65-5.65 53-6.3L53-6.3Q53.35-7 53.55-7.55 53.75-8.1 53.85-8.6L53.85-8.6Q53.85-8.65 54.05-8.8 54.25-8.95 54.45-9.05L54.45-9.05 54.75-9.1Q55.15-9.1 55.42-8.95 55.7-8.8 55.6-8.55L55.6-8.55Q55.25-7.8 55-7.25 54.75-6.7 54.6-6.3L54.6-6.3 54.55-6.3Q54-5.05 53.62-3.93 53.25-2.8 53.3-1.8L53.3-1.8 53.35-0.45Q53.3 0.05 53 0.4L53 0.4Q52.8 0.55 52.45 0.78 52.1 1 51.55 1.25L51.55 1.25Q51.5 1.3 51.3 1.3ZM61.44-13.1L61.44-13.1Q60.79-13.1 60.79-13.4L60.79-13.4Q60.79-13.65 61.17-14.13 61.54-14.6 62.04-14.95L62.04-14.95Q63.14-15.65 63.77-16.15 64.39-16.65 65.29-17.85L65.29-17.85Q65.34-17.75 65.34-17.45L65.34-17.45Q65.34-16.8 64.82-15.88 64.29-14.95 63.64-14.2 62.99-13.45 62.49-13.25L62.49-13.25Q62.04-13.1 61.44-13.1ZM47.34 15.35L47.34 15.35Q46.54 15.35 46.09 14.55 45.64 13.75 45.64 12.55L45.64 12.55Q45.64 11.35 46.09 10.1 46.54 8.85 47.44 7.95L47.44 7.95Q47.59 7.8 47.69 7.8L47.69 7.8Q48.04 7.8 48.04 8.25L48.04 8.25Q48.04 8.5 47.89 8.8L47.89 8.8Q46.89 11.35 46.89 12.5L46.89 12.5Q46.89 13.5 47.54 13.5L47.54 13.5Q48.49 13.5 50.19 11.5L50.19 11.5Q51.94 9.5 53.89 5.78 55.84 2.05 57.59-2.75L57.59-2.75 58.09-4.1Q58.94-6.45 59.52-8 60.09-9.55 60.14-10.35L60.14-10.35Q60.24-10.75 60.79-10.75L60.79-10.75Q61.24-10.75 61.72-10.5 62.19-10.25 62.14-10.05L62.14-10.05Q61.89-9.05 61.57-8.15 61.24-7.25 60.89-6.45L60.89-6.45Q60.54-5.65 60.34-5.2 60.14-4.75 60.09-4.6L60.09-4.6Q57.69 1.5 53.54 8.55L53.54 8.55Q51.99 11.2 50.94 12.63 49.89 14.05 48.79 14.8L48.79 14.8Q47.99 15.35 47.34 15.35ZM76.24 4.95L76.24 4.95Q73.14 4.95 71.31 3.13 69.49 1.3 69.49-1.8L69.49-1.8Q69.49-3.95 70.14-6.28 70.79-8.6 72.04-11.1L72.04-11.1Q73.64-14.3 75.91-16.88 78.19-19.45 80.91-20.95 83.64-22.45 86.54-22.45L86.54-22.45Q88.44-22.45 89.31-21.53 90.19-20.6 90.19-19.1L90.19-19.1Q90.19-17.8 89.64-16.23 89.09-14.65 88.31-13.33 87.54-12 86.74-11.3L86.74-11.3Q86.54-11.1 86.29-11.1L86.29-11.1Q86.04-11.1 86.04-11.35L86.04-11.35Q86.04-11.7 86.39-12.05L86.39-12.05Q87.24-12.8 87.94-14.45 88.64-16.1 88.64-17.6L88.64-17.6Q88.64-18.9 88.04-19.68 87.44-20.45 86.14-20.45L86.14-20.45Q82.54-20.45 79.14-17.35L79.14-17.35Q76.89-15.3 75.09-12.6 73.29-9.9 72.19-7.13 71.09-4.35 70.84-2.05L70.84-2.05Q70.69-0.3 71.41 1.18 72.14 2.65 73.49 3.48 74.84 4.3 76.54 4.15L76.54 4.15Q81.09 3.75 85.44-0.03 89.79-3.8 94.64-10.45L94.64-10.45Q94.04-11.05 93.84-11.9L93.84-11.9Q93.74-12.7 94.16-13.18 94.59-13.65 95.24-13.65L95.24-13.65Q96.09-13.65 96.59-13.15L96.59-13.15Q97.44-14.65 99.74-18.55L99.74-18.55Q100.04-19.05 100.76-20.28 101.49-21.5 102.34-23.03 103.19-24.55 103.89-25.9L103.89-25.9Q103.94-25.95 103.94-26.1L103.94-26.1Q103.94-26.2 103.69-26.55L103.69-26.55Q103.34-26.8 103.59-27.1L103.59-27.1 104.89-29.75Q105.14-30.15 105.74-30.15L105.74-30.15Q106.34-30.15 106.86-29.85 107.39-29.55 107.34-29.2L107.34-29.2Q106.79-26.9 104.51-22.93 102.24-18.95 98.64-13.5L98.64-13.5Q98.04-12.6 97.64-12.2L97.64-12.2 97.54-12.1Q97.39-11.95 97.44-11.7L97.44-11.7 97.54-10.95Q98.29-10.7 98.64-10.7L98.64-10.7Q100.34-10.7 102.24-11.28 104.14-11.85 105.91-12.75 107.69-13.65 108.94-14.55L108.94-14.55Q112.14-16.9 114.36-19.38 116.59-21.85 118.19-24.7L118.19-24.7Q118.44-25.3 118.44-26.15L118.44-26.15Q118.54-26.7 118.71-27.2 118.89-27.7 119.14-28.05L119.14-28.05Q119.34-28.4 119.94-28.4L119.94-28.4Q120.54-28.4 121.01-28.08 121.49-27.75 121.39-27.3L121.39-27.3Q120.94-25.5 119.19-23.05 117.44-20.6 114.96-18.1 112.49-15.6 109.74-13.6L109.74-13.6Q108.34-12.55 106.41-11.63 104.49-10.7 102.44-10.13 100.39-9.55 98.49-9.55L98.49-9.55 97.94-9.55Q98.34-7.7 98.89-6.3 99.44-4.9 100.44-3.45L100.44-3.45Q101.49-2 102.59-1.07 103.69-0.15 105.14-0.15L105.14-0.15Q106.09-0.15 107.24-0.48 108.39-0.8 108.69-1.3L108.69-1.3Q108.99-1.75 109.44-1.75L109.44-1.75Q109.79-1.75 109.79-1.5L109.79-1.5Q109.79-1.35 109.64-1.1L109.64-1.1Q109.19-0.45 108.16 0.43 107.14 1.3 106.09 1.93 105.04 2.55 104.34 2.55L104.34 2.55Q102.44 2.4 101.14 1.35 99.84 0.3 98.64-2.05L98.64-2.05Q97.89-3.65 97.14-6.15L97.14-6.15 96.59-8Q96.49-8.55 96.34-9 96.19-9.45 96.09-9.8L96.09-9.8 95.84-9.9Q90.74-3 85.74 0.95 80.74 4.9 76.24 4.95ZM117.49 1.35L117.49 1.35Q117.39 1.35 117.29 1.33 117.19 1.3 117.09 1.25L117.09 1.25Q116.39 0.9 116.19 0.25 115.99-0.4 116.09-1.4L116.09-1.4Q116.19-1.8 116.31-2.8 116.44-3.8 116.64-4.4L116.64-4.4 114.09-1.95 112.69-0.6Q111.24 0.85 110.29 0.85L110.29 0.85Q109.89 0.85 109.64 0.55L109.64 0.55Q109.19 0 109.19-0.8L109.19-0.8Q109.19-1.85 109.74-3.05 110.29-4.25 111.04-5.38 111.79-6.5 112.39-7.25L112.39-7.25Q113.89-9.1 115.31-10.15 116.74-11.2 118.29-11.2L118.29-11.2Q119.14-11.2 119.96-10.9 120.79-10.6 121.49-9.9L121.49-9.9 121.54-9.85Q121.54-9.7 121.29-9.55L121.29-9.55Q121.19-9.45 121.11-9.4 121.04-9.35 120.99-9.3L120.99-9.3Q120.39-8.7 119.64-7.3 118.89-5.9 118.34-4.38 117.79-2.85 117.79-1.75L117.79-1.75Q117.79-0.75 118.29-0.4L118.29-0.4Q118.54-0.25 118.84-0.25L118.84-0.25Q119.49-0.25 120.64-1.05L120.64-1.05Q120.69-1.1 120.86-1.23 121.04-1.35 121.39-1.6L121.39-1.6Q121.79-1.9 122.04-1.9L122.04-1.9Q122.29-1.9 122.29-1.7L122.29-1.7Q122.29-1.4 121.89-1L121.89-1Q121.59-0.75 121.21-0.45 120.84-0.15 120.34 0.15L120.34 0.15Q119.59 0.7 118.79 1.03 117.99 1.35 117.49 1.35ZM111.84-1.85L111.84-1.85Q112.89-1.85 115.74-4.95L115.74-4.95Q116.49-5.8 117.09-6.58 117.69-7.35 118.19-8.1L118.19-8.1Q119.09-9.55 118.79-10.1L118.79-10.1Q118.64-10.4 118.19-10.4L118.19-10.4Q117.64-10.4 116.69-9.83 115.74-9.25 114.76-8.35 113.79-7.45 112.99-6.55L112.99-6.55Q112.44-5.85 111.89-4.6 111.34-3.35 111.34-2.55L111.34-2.55Q111.34-1.85 111.84-1.85ZM123.98 2.95L123.83 2.95Q122.78 2.95 122.93 1.9L122.93 1.9Q123.23 0 123.98-1.9L123.98-1.9Q124.38-2.9 125.01-4.2 125.63-5.5 126.48-7.1L126.48-7.1Q126.93-7.95 127.26-8.6 127.58-9.25 127.78-9.65L127.78-9.65Q128.13-10.35 128.51-11.15 128.88-11.95 129.28-12.9L129.28-12.9Q131.18-17.05 132.56-19.43 133.93-21.8 135.53-22.8L135.53-22.8Q135.63-22.9 136.08-22.83 136.53-22.75 136.96-22.6 137.38-22.45 137.48-22.25L137.48-22.25Q137.63-21.9 137.63-21.25L137.63-21.25Q137.63-19.25 135.78-16.45L135.78-16.45Q134.78-14.95 133.26-13.18 131.73-11.4 129.68-9.35L129.68-9.35 128.78-7.9Q127.28-5.5 126.46-3.8 125.63-2.1 125.83-0.8L125.83-0.8Q125.93-0.5 126.08-0.5L126.08-0.5Q126.23-0.5 126.58-0.75L126.58-0.75Q126.93-1 127.31-1.35 127.68-1.7 128.03-2.2L128.03-2.2Q128.28-2.45 128.46-2.75 128.63-3.05 128.83-3.3L128.83-3.3Q129.13-3.85 129.43-4.2L129.43-4.2Q130.38-5.8 131.03-6.45L131.03-6.45Q132.13-7.55 132.98-7.55L132.98-7.55Q133.98-7.55 134.76-6.48 135.53-5.4 136.43-3.4L136.43-3.4Q137.08-1.9 137.63-1.1L137.63-1.1Q138.18-0.35 138.68-0.35L138.68-0.35Q139.18-0.35 139.83-0.95L139.83-0.95Q140.43-1.5 140.88-1.55L140.88-1.55Q141.18-1.2 140.83-0.68 140.48-0.15 139.81 0.33 139.13 0.8 138.48 1.1 137.83 1.4 137.48 1.3L137.48 1.3Q136.08 0.9 135.31-0.13 134.53-1.15 133.78-2.8L133.78-2.8Q133.53-3.35 133.33-3.78 133.13-4.2 132.93-4.45L132.93-4.45Q132.58-4.95 131.98-4.95L131.98-4.95Q131.53-4.95 130.93-4.5L130.93-4.5Q130.33-4 129.73-3.33 129.13-2.65 128.58-1.7L128.58-1.7Q128.23-1.2 128.06-0.93 127.88-0.65 127.78-0.55L127.78-0.55Q127.53-0.2 127.01 0.48 126.48 1.15 125.78 2.15L125.78 2.15Q125.53 2.45 125.01 2.7 124.48 2.95 123.98 2.95L123.98 2.95ZM129.93-11.4L129.93-11.4Q130.08-11.3 130.68-11.88 131.28-12.45 132.06-13.38 132.83-14.3 133.61-15.33 134.38-16.35 134.83-17.15L134.83-17.15Q136.38-19.8 136.38-20.65L136.38-20.65Q136.38-21 136.13-21.15L136.13-21.15Q135.63-21.55 134.78-20.73 133.93-19.9 133.08-18.57 132.23-17.25 131.63-15.95L131.63-15.95Q131.28-15.15 130.91-14.15 130.53-13.15 130.28-12.38 130.03-11.6 129.93-11.4ZM142.08 3.3L142.08 3.3Q141.53 3.3 141.16 2.95 140.78 2.6 140.83 2.1L140.83 2.1Q140.93 0.05 141.61-1.85 142.28-3.75 143.58-6.4L143.58-6.4Q143.73-6.75 143.86-7.03 143.98-7.3 144.08-7.5L144.08-7.5Q145.18-9.85 146.33-12 147.48-14.15 148.63-16.2L148.63-16.2 149.33-17.45Q150.53-19.6 151.43-20.93 152.33-22.25 153.23-22.85L153.23-22.85Q154.38-23.55 154.63-23.55L154.63-23.55Q155.03-23.55 155.43-22.85L155.43-22.85Q155.68-22.35 154.43-20.4L154.43-20.4Q153.78-19.4 152.81-17.9 151.83-16.4 150.48-14.5L150.48-14.5Q150.23-14.15 149.66-13.28 149.08-12.4 148.13-11L148.13-11Q147.18-9.6 146.48-8.47 145.78-7.35 145.33-6.5L145.33-6.5Q144.43-4.85 143.63-2.98 142.83-1.1 142.83-0.05L142.83-0.05Q142.83 0.9 143.58 0.9L143.58 0.9Q144.78 0.9 147.43-1.15L147.43-1.15Q147.73-1.1 147.73-0.85L147.73-0.85Q147.73-0.65 147.23-0.15L147.23-0.15Q146.78 0.3 146.11 0.83 145.43 1.35 144.53 2.05L144.53 2.05 143.73 2.65Q142.93 3.3 142.08 3.3ZM157.53 1.35L157.53 1.35Q157.43 1.35 157.33 1.33 157.23 1.3 157.13 1.25L157.13 1.25Q156.43 0.9 156.23 0.25 156.03-0.4 156.13-1.4L156.13-1.4Q156.23-1.8 156.35-2.8 156.48-3.8 156.68-4.4L156.68-4.4 154.13-1.95 152.73-0.6Q151.28 0.85 150.33 0.85L150.33 0.85Q149.93 0.85 149.68 0.55L149.68 0.55Q149.23 0 149.23-0.8L149.23-0.8Q149.23-1.85 149.78-3.05 150.33-4.25 151.08-5.38 151.83-6.5 152.43-7.25L152.43-7.25Q153.93-9.1 155.35-10.15 156.78-11.2 158.33-11.2L158.33-11.2Q159.18-11.2 160-10.9 160.83-10.6 161.53-9.9L161.53-9.9 161.58-9.85Q161.58-9.7 161.33-9.55L161.33-9.55Q161.23-9.45 161.15-9.4 161.08-9.35 161.03-9.3L161.03-9.3Q160.43-8.7 159.68-7.3 158.93-5.9 158.38-4.38 157.83-2.85 157.83-1.75L157.83-1.75Q157.83-0.75 158.33-0.4L158.33-0.4Q158.58-0.25 158.88-0.25L158.88-0.25Q159.53-0.25 160.68-1.05L160.68-1.05Q160.73-1.1 160.9-1.23 161.08-1.35 161.43-1.6L161.43-1.6Q161.83-1.9 162.08-1.9L162.08-1.9Q162.33-1.9 162.33-1.7L162.33-1.7Q162.33-1.4 161.93-1L161.93-1Q161.63-0.75 161.25-0.45 160.88-0.15 160.38 0.15L160.38 0.15Q159.63 0.7 158.83 1.03 158.03 1.35 157.53 1.35ZM151.88-1.85L151.88-1.85Q152.93-1.85 155.78-4.95L155.78-4.95Q156.53-5.8 157.13-6.58 157.73-7.35 158.23-8.1L158.23-8.1Q159.13-9.55 158.83-10.1L158.83-10.1Q158.68-10.4 158.23-10.4L158.23-10.4Q157.68-10.4 156.73-9.83 155.78-9.25 154.8-8.35 153.83-7.45 153.03-6.55L153.03-6.55Q152.48-5.85 151.93-4.6 151.38-3.35 151.38-2.55L151.38-2.55Q151.38-1.85 151.88-1.85ZM165.88 0.85L165.88 0.85Q163.93 0.85 163.93-0.9L163.93-0.9Q163.93-1 163.95-1.25 163.98-1.5 164.03-1.85L164.03-1.85Q164.53-3.9 166.05-5.83 167.58-7.75 169.58-9.2L169.58-9.2Q170.33-9.8 171.98-9.8L171.98-9.8Q172.93-9.8 173.65-9.53 174.38-9.25 174.68-8.7L174.68-8.7Q174.98-8.2 174.98-7.55L174.98-7.55Q174.98-7.45 174.95-7.25 174.93-7.05 174.88-6.8L174.88-6.8Q174.98-6.85 175.2-6.85 175.43-6.85 175.78-6.9L175.78-6.9Q176.13-6.95 176.45-7 176.78-7.05 177.13-7.05L177.13-7.05 177.33-7.05Q177.88-7.05 177.45-6.63 177.03-6.2 176.33-6.1L176.33-6.1 174.63-5.9Q174.13-4.5 172.9-3.1 171.68-1.7 170.2-0.68 168.73 0.35 167.43 0.65L167.43 0.65Q166.68 0.85 165.88 0.85ZM172.28-6.6L172.28-6.6Q172.58-6.6 173-6.63 173.43-6.65 173.98-6.7L173.98-6.7Q174.03-6.8 174.03-7.15L174.03-7.15Q174.03-8.05 173.28-8.4L173.28-8.4Q172.88-8.65 172.28-8.65L172.28-8.65Q171.53-8.65 170.75-8.18 169.98-7.7 169.13-6.95L169.13-6.95Q170.18-6.6 172.28-6.6ZM167.38-0.9L167.38-0.9Q167.88-0.9 168.8-1.38 169.73-1.85 170.73-2.65 171.73-3.45 172.53-4.35L172.53-4.35Q172.78-4.6 173.03-4.98 173.28-5.35 173.58-5.75L173.58-5.75 172.38-5.6Q169.58-5.2 167.38-5.15L167.38-5.15Q166.28-3.35 166.03-2.15L166.03-2.15Q165.98-1.5 166.38-1.2 166.78-0.9 167.38-0.9ZM185.32 1.45L185.32 1.45Q184.02 1.45 184.02-0.45L184.02-0.45Q184.02-2.4 185.37-6.2L185.37-6.2Q183.77-4.15 182.2-2.58 180.62-1 179.07 0L179.07 0Q177.97 0.8 177.07 0.8L177.07 0.8Q175.87 0.8 175.87-0.85L175.87-0.85Q175.87-1.75 176.17-2.5L176.17-2.5Q176.57-3.6 177.35-5.05 178.12-6.5 179.17-7.95 180.22-9.4 181.32-10.4L181.32-10.4Q181.72-10.65 181.82-10.65L181.82-10.65Q182.17-10.65 182.17-10.25L182.17-10.25Q182.17-10.1 182.02-9.85L182.02-9.85Q181.57-9.35 180.97-8.4 180.37-7.45 179.82-6.35 179.27-5.25 178.9-4.33 178.52-3.4 178.52-2.95L178.52-2.95Q178.52-2.05 179.32-2.05L179.32-2.05Q179.67-2.05 180.07-2.3L180.07-2.3Q181.92-3.45 183.47-5.08 185.02-6.7 186.37-9.5L186.37-9.5Q186.82-9.8 187.37-9.8L187.37-9.8Q187.92-9.8 188.3-9.45 188.67-9.1 188.67-8.5L188.67-8.5Q188.67-8.05 188.42-7.45L188.42-7.45Q188.37-7.25 188.25-7.05 188.12-6.85 187.97-6.6L187.97-6.6Q187.82-6.35 187.72-6.13 187.62-5.9 187.52-5.75L187.52-5.75Q186.57-4.05 186.05-2.9 185.52-1.75 185.52-0.9L185.52-0.9Q185.52 0.1 186.42 0.1L186.42 0.1Q187.22 0.1 188.02-0.5L188.02-0.5Q188.52-0.85 188.87-0.85L188.87-0.85Q189.42-0.85 188.65-0.18 187.87 0.5 186.77 1.05L186.77 1.05Q185.72 1.45 185.32 1.45ZM195.22-10.95L195.22-10.95Q194.57-10.95 194.57-11.25L194.57-11.25Q194.57-11.5 194.95-11.98 195.32-12.45 195.82-12.8L195.82-12.8Q196.92-13.5 197.55-14 198.17-14.5 199.07-15.7L199.07-15.7Q199.12-15.6 199.12-15.3L199.12-15.3Q199.12-14.65 198.6-13.73 198.07-12.8 197.42-12.05 196.77-11.3 196.27-11.1L196.27-11.1Q195.82-10.95 195.22-10.95ZM190.77 1.3L190.77 1.3Q190.37 1.3 190.02 1 189.67 0.7 189.67 0.2L189.67 0.2Q189.67-0.85 191.12-3.65L191.12-3.65 191.67-4.75Q191.77-4.85 191.95-5.25 192.12-5.65 192.47-6.3L192.47-6.3Q192.82-7 193.02-7.55 193.22-8.1 193.32-8.6L193.32-8.6Q193.32-8.65 193.52-8.8 193.72-8.95 193.92-9.05L193.92-9.05 194.22-9.1Q194.62-9.1 194.9-8.95 195.17-8.8 195.07-8.55L195.07-8.55Q194.72-7.8 194.47-7.25 194.22-6.7 194.07-6.3L194.07-6.3 194.02-6.3Q193.47-5.05 193.1-3.93 192.72-2.8 192.77-1.8L192.77-1.8 192.82-0.45Q192.77 0.05 192.47 0.4L192.47 0.4Q192.27 0.55 191.92 0.78 191.57 1 191.02 1.25L191.02 1.25Q190.97 1.3 190.77 1.3Z" opacity="1" transform="matrix(1,0,0,1,0,0)" fill="#556970" class="wordmark-text-0" data-fill-palette-color="primary" id="text-0"></path></svg></g></svg></g></svg></g></svg></g><g transform="matrix(1,0,0,1,84.7350204159524,0)"><svg viewBox="0 0 76.18347596809514 66.20262057289224" height="66.20262057289224" width="76.18347596809514"><g><svg xmlns="http://www.w3.org/2000/svg" version="1.0" viewBox="78.15765509594274 46.24828926043631 642.6896327783782 706.9671071759648" preserveAspectRatio="xMidYMid meet" x="7.9999999999999964" y="0" height="66.20262057289224" width="60.183475968095145" class="icon-icon-0" data-fill-palette-color="accent" id="icon-0"><g transform="translate(0.000000,800.000000) scale(0.100000,-0.100000)" fill="#111111" stroke="none" data-fill-palette-color="accent"><path d="M3205 7534C2870 7508 2519 7445 2369 7384 2213 7320 2058 7208 1874 7025 1730 6882 1669 6806 1650 6745 1642 6723 1633 6660 1630 6605 1624 6513 1619 6496 1573 6395 1545 6335 1492 6200 1454 6095L1386 5905V5790C1385 5694 1389 5663 1410 5600 1455 5461 1437 5220 1378 5189 1346 5172 1270 5184 1194 5218L1125 5250 1179 5200C1208 5173 1256 5139 1285 5123L1338 5096 1323 5065C1285 4992 1130 4811 930 4605 865 4539 805 4470 795 4451 773 4407 779 4320 806 4283 820 4265 894 4226 1050 4155L1275 4052 1273 3994C1271 3928 1240 3821 1210 3772 1199 3754 1176 3731 1160 3722 1135 3708 1130 3699 1130 3667 1130 3613 1152 3568 1195 3533 1239 3496 1296 3480 1382 3480H1445L1400 3453C1321 3407 1292 3380 1270 3335 1244 3280 1251 3247 1296 3219 1346 3188 1397 3124 1417 3066 1443 2992 1440 2850 1411 2737 1389 2652 1389 2647 1405 2607 1446 2503 1542 2435 1690 2404 1792 2382 1962 2390 2045 2420 2231 2486 2482 2528 2751 2537L2937 2543 3037 2409C3389 1939 3596 1508 3696 1035 3722 916 3724 886 3724 683 3725 538 3728 464 3735 468 3743 473 5679 1927 5688 1935 5689 1936 5636 1990 5569 2056 4982 2632 4688 3122 4708 3491 4710 3521 4716 3530 4748 3547 4819 3588 4950 3691 5053 3790 5169 3901 5187 3908 5240 3863 5269 3839 5272 3832 5267 3796 5264 3773 5243 3717 5221 3670S5169 3539 5154 3485C5119 3354 5114 3137 5144 3025 5171 2923 5211 2831 5266 2743 5334 2633 5525 2443 5656 2357 5747 2296 5942 2190 5961 2190 5965 2190 5929 2229 5881 2277 5747 2413 5655 2567 5642 2679L5637 2724 5681 2688C5805 2588 6032 2459 6178 2406 6349 2345 6402 2336 6595 2335 6804 2335 6880 2350 7035 2424 7138 2474 7244 2546 7197 2536 7085 2511 7020 2522 6959 2577 6912 2620 6878 2681 6854 2771 6840 2823 6836 2881 6834 3080 6833 3287 6829 3341 6811 3427 6749 3723 6596 3976 6378 4141 6207 4270 6092 4296 5918 4245 5811 4213 5694 4203 5633 4219 5579 4234 5535 4276 5520 4328 5507 4369 5508 4370 5577 4507 5740 4825 5812 5113 5811 5445 5811 5774 5742 6063 5589 6376 5525 6508 5408 6690 5307 6815 5216 6928 5021 7112 4909 7192 4679 7357 4387 7460 3999 7516 3889 7531 3335 7544 3205 7534M4108 7010C4308 6992 4452 6953 4626 6871 5316 6543 5646 5746 5390 5025 5314 4813 5207 4645 5036 4474 4824 4263 4597 4137 4301 4069 4240 4054 4163 4047 4035 4043 3758 4035 3582 4071 3343 4185 3044 4327 2803 4565 2653 4863 2554 5062 2511 5238 2503 5480 2499 5629 2501 5673 2518 5775 2574 6100 2725 6381 2965 6609 3236 6865 3569 7002 3965 7019 3982 7019 4046 7015 4108 7010" fill="#111111" data-fill-palette-color="accent"></path><path d="M4062 5983C3959 5696 3721 5006 3723 5003 3731 4995 3875 4981 3880 4987 3884 4992 3967 5227 4065 5510S4245 6030 4247 6036C4252 6049 4229 6056 4149 6065L4093 6072z" fill="#111111" data-fill-palette-color="accent"></path><path d="M3120 5851L2755 5654V5387L3115 5199C3313 5095 3478 5011 3483 5010 3487 5010 3490 5070 3490 5144V5277L3268 5394C3145 5459 3042 5515 3038 5519S3134 5582 3260 5650L3490 5775V5913C3490 5988 3489 6050 3488 6049 3486 6049 3321 5960 3120 5851" fill="#111111" data-fill-palette-color="accent"></path><path d="M4420 5912V5775L4650 5650C4776 5582 4876 5523 4872 5519S4765 5459 4643 5394L4420 5277V5143C4420 5070 4423 5010 4428 5010 4432 5010 4602 5095 4805 5199L5175 5388V5654L4930 5782C4795 5853 4625 5942 4553 5980L4420 6049z" fill="#111111" data-fill-palette-color="accent"></path></g></svg></g></svg></g><g><rect width="36.5787411867571" height="5.142840469616027" y="60.05978010327622" x="160.91849638404756" fill="#556970" data-fill-palette-color="secondary"></rect><rect width="36.5787411867571" height="5.142840469616027" y="60.05978010327622" x="48.156279229195306" fill="#556970" data-fill-palette-color="secondary"></rect></g></svg></g></svg></g><g><path d="M116.731 33.972A120.826 120.826 0 0 1 278.789 33.972L273.73 33.972A115.767 115.767 0 0 0 121.79 33.972L116.731 33.972M116.731 213.228A120.826 120.826 0 0 0 278.789 213.228L273.73 213.228A115.767 115.767 0 0 1 121.79 213.228L116.731 213.228" fill="url(#1f0ee978-226b-444b-9108-050ca50dd2f4)" stroke="transparent" data-fill-palette-color="tertiary"></path></g></svg></g><defs></defs><mask id="606e391e-546c-4708-9531-ef58b914cd3c"><g id="SvgjsG3543"><svg viewBox="0 0 395.52 247.2" height="247.2" width="395.52"><g><svg></svg></g><g><svg viewBox="0 0 395.52 247.2" height="247.2" width="395.52"><g transform="matrix(1,0,0,1,76.93398192426429,47.215199999999996)"><svg viewBox="0 0 241.6520361514714 152.7696" height="152.7696" width="241.6520361514714"><g><svg viewBox="0 0 245.65351679999995 155.29928941548778" height="152.7696" width="241.6520361514714"><g><rect width="245.65351679999995" height="5.142840469616027" x="0" y="79.66555373942634" fill="black" opacity="1" stroke-width="0" stroke="transparent" fill-opacity="1" class="rect-yte-0" rx="1%" id="SvgjsRect3542" data-palette-color="#556970"></rect></g><g transform="matrix(1,0,0,1,0.6110783999999825,98.27132737557648)"><svg viewBox="0 0 244.43135999999998 57.02796203991131" height="57.02796203991131" width="244.43135999999998"><g id="SvgjsG3541"><svg viewBox="0 0 244.43135999999998 57.02796203991131" height="57.02796203991131" width="244.43135999999998" id="SvgjsSvg3540"><g><svg viewBox="0 0 244.43135999999998 57.02796203991131" height="57.02796203991131" width="244.43135999999998"><g transform="matrix(1,0,0,1,0,0)"><svg width="244.43135999999998" viewBox="-3.8 -32 202.92000000000002 47.35" height="57.02796203991131" data-palette-color="#556970"><path d="M1.8 7.5L1.8 7.5Q-0.85 7.5-2.33 5.95-3.8 4.4-3.8 1.75L-3.8 1.75Q-3.8 1.1-3.73 0.5-3.65-0.1-3.55-0.6L-3.55-0.6Q-2.65-4.85 1-10.35L1-10.35Q3.4-14.05 6.38-17.05 9.35-20.05 12.53-21.85 15.7-23.65 18.65-23.65L18.65-23.65Q20.35-23.65 21.15-22.73 21.95-21.8 21.95-20.25L21.95-20.25Q21.95-18.45 21.05-16.1L21.05-16.1Q20.1-13.75 18.73-11.68 17.35-9.6 16.05-8.65L16.05-8.65Q15.85-8.45 15.6-8.45L15.6-8.45Q15.4-8.45 15.4-8.7L15.4-8.7Q15.4-9.25 16.1-9.8L16.1-9.8Q16.75-10.25 17.53-11.38 18.3-12.5 19.03-13.9 19.75-15.3 20.23-16.7 20.7-18.1 20.7-19.1L20.7-19.1Q20.7-21.5 18.3-21.5L18.3-21.5Q13.75-21.5 9.5-18L9.5-18Q6.65-15.7 4.33-12.63 2-9.55 0.38-6.35-1.25-3.15-2-0.3L-2-0.3Q-2.3 0.8-2.3 1.9L-2.3 1.9Q-2.3 4.05-1.07 5.3 0.15 6.55 2.25 6.35L2.25 6.35Q6.1 6 10.75 3.3L10.75 3.3Q13.8 1.5 16.65-0.75 19.5-3 21.95-5.48 24.4-7.95 26.2-10.25L26.2-10.25 23.8-9.9Q22.7-9.75 21.98-9.58 21.25-9.4 21-9.3L21-9.3Q20.9-9.25 20.75-9.25L20.75-9.25Q20.45-9.25 20.45-9.7L20.45-9.7Q20.45-10.15 20.78-10.75 21.1-11.35 21.5-11.55L21.5-11.55Q22.85-12.25 27.95-12.6L27.95-12.6Q30.15-15.1 32.5-17.6L32.5-17.6Q35-20.3 36.7-22.2 38.4-24.1 39.73-25.73 41.05-27.35 42.3-29.1L42.3-29.1Q42.7-29.65 43.1-29.65L43.1-29.65Q43.4-29.65 43.4-29.35L43.4-29.35Q43.4-29.05 43.2-28.85L43.2-28.85Q41.5-26.45 39.65-24.15 37.8-21.85 35.58-19.28 33.35-16.7 30.55-13.45L30.55-13.45 29.9-12.7 32.2-12.8 36.6-12.95Q36.55-12.85 37.05-13.88 37.55-14.9 38.55-17.05L38.55-17.05Q39.95-19.95 41.03-22.23 42.1-24.5 42.8-26.15L42.8-26.15Q44.25-29.4 44.3-30.65L44.3-30.65Q44.35-31.3 44.95-31.65 45.55-32 46.3-32L46.3-32Q46.85-32 47.33-31.83 47.8-31.65 47.9-31.4L47.9-31.4Q48.15-30.95 47.15-29L47.15-29Q46.5-27.65 45.55-25.9 44.6-24.15 43.4-22L43.4-22Q41.75-19.05 40.58-16.8 39.4-14.55 38.7-13L38.7-13 42.55-13.2 42.7-13.2Q43.15-13.2 43.15-12.9L43.15-12.9Q43.15-12.7 42.9-12.5 42.65-12.3 42.25-12.25L42.25-12.25 38.2-11.95Q38.15-11.85 37.65-10.75 37.15-9.65 36.2-7.6L36.2-7.6Q34.3-3.4 34.3-0.45L34.3-0.45Q34.3 1.55 35.8 1.55L35.8 1.55Q36.2 1.55 36.88 1.18 37.55 0.8 38.18 0.3 38.8-0.2 39.1-0.6L39.1-0.6Q39.45-1.1 39.8-1.1L39.8-1.1Q40-1.1 40-0.9L40-0.9Q40-0.65 39.6-0.25L39.6-0.25Q39.1 0.3 38.3 1 37.5 1.7 36.7 2.2 35.9 2.7 35.35 2.75L35.35 2.75Q32.15 2.95 32.15-0.15L32.15-0.15Q32.15-2 33.08-4.4 34-6.8 35.4-10L35.4-10 36.2-11.8Q34.5-11.65 31.55-11.05L31.55-11.05Q30.5-10.85 29.68-10.73 28.85-10.6 28.3-10.5L28.3-10.5Q25.35-7.15 21.95-3.95 18.55-0.75 15.03 1.85 11.5 4.45 8.13 5.98 4.75 7.5 1.8 7.5ZM40.75 1.05L40.75 1.05Q40.1 1.05 40.1-0.1L40.1-0.1Q40.1-1.05 40.55-1.95L40.55-1.95Q41.7-4.15 42.65-6.3L42.65-6.3Q43.3-7.6 43.87-8.8 44.45-10 44.95-11L44.95-11Q45.25-11.3 45.55-11.3L45.55-11.3Q46.2-11.3 45.95-10.7L45.95-10.7Q45.85-10.35 45.67-9.88 45.5-9.4 45.25-8.75L45.25-8.75Q44.45-6.65 44.3-5.8L44.3-5.8Q45.7-7.05 47.17-8.13 48.65-9.2 49.95-9.9 51.25-10.6 52.15-10.6L52.15-10.6Q52.95-10.6 52.95-9.95L52.95-9.95Q52.95-9.4 52.45-8.78 51.95-8.15 51.45-8.15L51.45-8.15Q51.2-8.15 51.05-8.3L51.05-8.3Q50.9-8.35 50.45-8.35L50.45-8.35Q48.85-8.35 47.1-6.8L47.1-6.8Q45.25-5.25 43.75-3.08 42.25-0.9 41.55 0.7L41.55 0.7Q41.2 1.05 40.75 1.05ZM55.75-10.95L55.75-10.95Q55.1-10.95 55.1-11.25L55.1-11.25Q55.1-11.5 55.47-11.98 55.85-12.45 56.35-12.8L56.35-12.8Q57.45-13.5 58.07-14 58.7-14.5 59.6-15.7L59.6-15.7Q59.65-15.6 59.65-15.3L59.65-15.3Q59.65-14.65 59.12-13.73 58.6-12.8 57.95-12.05 57.3-11.3 56.8-11.1L56.8-11.1Q56.35-10.95 55.75-10.95ZM51.3 1.3L51.3 1.3Q50.9 1.3 50.55 1 50.2 0.7 50.2 0.2L50.2 0.2Q50.2-0.85 51.65-3.65L51.65-3.65 52.2-4.75Q52.3-4.85 52.47-5.25 52.65-5.65 53-6.3L53-6.3Q53.35-7 53.55-7.55 53.75-8.1 53.85-8.6L53.85-8.6Q53.85-8.65 54.05-8.8 54.25-8.95 54.45-9.05L54.45-9.05 54.75-9.1Q55.15-9.1 55.42-8.95 55.7-8.8 55.6-8.55L55.6-8.55Q55.25-7.8 55-7.25 54.75-6.7 54.6-6.3L54.6-6.3 54.55-6.3Q54-5.05 53.62-3.93 53.25-2.8 53.3-1.8L53.3-1.8 53.35-0.45Q53.3 0.05 53 0.4L53 0.4Q52.8 0.55 52.45 0.78 52.1 1 51.55 1.25L51.55 1.25Q51.5 1.3 51.3 1.3ZM61.44-13.1L61.44-13.1Q60.79-13.1 60.79-13.4L60.79-13.4Q60.79-13.65 61.17-14.13 61.54-14.6 62.04-14.95L62.04-14.95Q63.14-15.65 63.77-16.15 64.39-16.65 65.29-17.85L65.29-17.85Q65.34-17.75 65.34-17.45L65.34-17.45Q65.34-16.8 64.82-15.88 64.29-14.95 63.64-14.2 62.99-13.45 62.49-13.25L62.49-13.25Q62.04-13.1 61.44-13.1ZM47.34 15.35L47.34 15.35Q46.54 15.35 46.09 14.55 45.64 13.75 45.64 12.55L45.64 12.55Q45.64 11.35 46.09 10.1 46.54 8.85 47.44 7.95L47.44 7.95Q47.59 7.8 47.69 7.8L47.69 7.8Q48.04 7.8 48.04 8.25L48.04 8.25Q48.04 8.5 47.89 8.8L47.89 8.8Q46.89 11.35 46.89 12.5L46.89 12.5Q46.89 13.5 47.54 13.5L47.54 13.5Q48.49 13.5 50.19 11.5L50.19 11.5Q51.94 9.5 53.89 5.78 55.84 2.05 57.59-2.75L57.59-2.75 58.09-4.1Q58.94-6.45 59.52-8 60.09-9.55 60.14-10.35L60.14-10.35Q60.24-10.75 60.79-10.75L60.79-10.75Q61.24-10.75 61.72-10.5 62.19-10.25 62.14-10.05L62.14-10.05Q61.89-9.05 61.57-8.15 61.24-7.25 60.89-6.45L60.89-6.45Q60.54-5.65 60.34-5.2 60.14-4.75 60.09-4.6L60.09-4.6Q57.69 1.5 53.54 8.55L53.54 8.55Q51.99 11.2 50.94 12.63 49.89 14.05 48.79 14.8L48.79 14.8Q47.99 15.35 47.34 15.35ZM76.24 4.95L76.24 4.95Q73.14 4.95 71.31 3.13 69.49 1.3 69.49-1.8L69.49-1.8Q69.49-3.95 70.14-6.28 70.79-8.6 72.04-11.1L72.04-11.1Q73.64-14.3 75.91-16.88 78.19-19.45 80.91-20.95 83.64-22.45 86.54-22.45L86.54-22.45Q88.44-22.45 89.31-21.53 90.19-20.6 90.19-19.1L90.19-19.1Q90.19-17.8 89.64-16.23 89.09-14.65 88.31-13.33 87.54-12 86.74-11.3L86.74-11.3Q86.54-11.1 86.29-11.1L86.29-11.1Q86.04-11.1 86.04-11.35L86.04-11.35Q86.04-11.7 86.39-12.05L86.39-12.05Q87.24-12.8 87.94-14.45 88.64-16.1 88.64-17.6L88.64-17.6Q88.64-18.9 88.04-19.68 87.44-20.45 86.14-20.45L86.14-20.45Q82.54-20.45 79.14-17.35L79.14-17.35Q76.89-15.3 75.09-12.6 73.29-9.9 72.19-7.13 71.09-4.35 70.84-2.05L70.84-2.05Q70.69-0.3 71.41 1.18 72.14 2.65 73.49 3.48 74.84 4.3 76.54 4.15L76.54 4.15Q81.09 3.75 85.44-0.03 89.79-3.8 94.64-10.45L94.64-10.45Q94.04-11.05 93.84-11.9L93.84-11.9Q93.74-12.7 94.16-13.18 94.59-13.65 95.24-13.65L95.24-13.65Q96.09-13.65 96.59-13.15L96.59-13.15Q97.44-14.65 99.74-18.55L99.74-18.55Q100.04-19.05 100.76-20.28 101.49-21.5 102.34-23.03 103.19-24.55 103.89-25.9L103.89-25.9Q103.94-25.95 103.94-26.1L103.94-26.1Q103.94-26.2 103.69-26.55L103.69-26.55Q103.34-26.8 103.59-27.1L103.59-27.1 104.89-29.75Q105.14-30.15 105.74-30.15L105.74-30.15Q106.34-30.15 106.86-29.85 107.39-29.55 107.34-29.2L107.34-29.2Q106.79-26.9 104.51-22.93 102.24-18.95 98.64-13.5L98.64-13.5Q98.04-12.6 97.64-12.2L97.64-12.2 97.54-12.1Q97.39-11.95 97.44-11.7L97.44-11.7 97.54-10.95Q98.29-10.7 98.64-10.7L98.64-10.7Q100.34-10.7 102.24-11.28 104.14-11.85 105.91-12.75 107.69-13.65 108.94-14.55L108.94-14.55Q112.14-16.9 114.36-19.38 116.59-21.85 118.19-24.7L118.19-24.7Q118.44-25.3 118.44-26.15L118.44-26.15Q118.54-26.7 118.71-27.2 118.89-27.7 119.14-28.05L119.14-28.05Q119.34-28.4 119.94-28.4L119.94-28.4Q120.54-28.4 121.01-28.08 121.49-27.75 121.39-27.3L121.39-27.3Q120.94-25.5 119.19-23.05 117.44-20.6 114.96-18.1 112.49-15.6 109.74-13.6L109.74-13.6Q108.34-12.55 106.41-11.63 104.49-10.7 102.44-10.13 100.39-9.55 98.49-9.55L98.49-9.55 97.94-9.55Q98.34-7.7 98.89-6.3 99.44-4.9 100.44-3.45L100.44-3.45Q101.49-2 102.59-1.07 103.69-0.15 105.14-0.15L105.14-0.15Q106.09-0.15 107.24-0.48 108.39-0.8 108.69-1.3L108.69-1.3Q108.99-1.75 109.44-1.75L109.44-1.75Q109.79-1.75 109.79-1.5L109.79-1.5Q109.79-1.35 109.64-1.1L109.64-1.1Q109.19-0.45 108.16 0.43 107.14 1.3 106.09 1.93 105.04 2.55 104.34 2.55L104.34 2.55Q102.44 2.4 101.14 1.35 99.84 0.3 98.64-2.05L98.64-2.05Q97.89-3.65 97.14-6.15L97.14-6.15 96.59-8Q96.49-8.55 96.34-9 96.19-9.45 96.09-9.8L96.09-9.8 95.84-9.9Q90.74-3 85.74 0.95 80.74 4.9 76.24 4.95ZM117.49 1.35L117.49 1.35Q117.39 1.35 117.29 1.33 117.19 1.3 117.09 1.25L117.09 1.25Q116.39 0.9 116.19 0.25 115.99-0.4 116.09-1.4L116.09-1.4Q116.19-1.8 116.31-2.8 116.44-3.8 116.64-4.4L116.64-4.4 114.09-1.95 112.69-0.6Q111.24 0.85 110.29 0.85L110.29 0.85Q109.89 0.85 109.64 0.55L109.64 0.55Q109.19 0 109.19-0.8L109.19-0.8Q109.19-1.85 109.74-3.05 110.29-4.25 111.04-5.38 111.79-6.5 112.39-7.25L112.39-7.25Q113.89-9.1 115.31-10.15 116.74-11.2 118.29-11.2L118.29-11.2Q119.14-11.2 119.96-10.9 120.79-10.6 121.49-9.9L121.49-9.9 121.54-9.85Q121.54-9.7 121.29-9.55L121.29-9.55Q121.19-9.45 121.11-9.4 121.04-9.35 120.99-9.3L120.99-9.3Q120.39-8.7 119.64-7.3 118.89-5.9 118.34-4.38 117.79-2.85 117.79-1.75L117.79-1.75Q117.79-0.75 118.29-0.4L118.29-0.4Q118.54-0.25 118.84-0.25L118.84-0.25Q119.49-0.25 120.64-1.05L120.64-1.05Q120.69-1.1 120.86-1.23 121.04-1.35 121.39-1.6L121.39-1.6Q121.79-1.9 122.04-1.9L122.04-1.9Q122.29-1.9 122.29-1.7L122.29-1.7Q122.29-1.4 121.89-1L121.89-1Q121.59-0.75 121.21-0.45 120.84-0.15 120.34 0.15L120.34 0.15Q119.59 0.7 118.79 1.03 117.99 1.35 117.49 1.35ZM111.84-1.85L111.84-1.85Q112.89-1.85 115.74-4.95L115.74-4.95Q116.49-5.8 117.09-6.58 117.69-7.35 118.19-8.1L118.19-8.1Q119.09-9.55 118.79-10.1L118.79-10.1Q118.64-10.4 118.19-10.4L118.19-10.4Q117.64-10.4 116.69-9.83 115.74-9.25 114.76-8.35 113.79-7.45 112.99-6.55L112.99-6.55Q112.44-5.85 111.89-4.6 111.34-3.35 111.34-2.55L111.34-2.55Q111.34-1.85 111.84-1.85ZM123.98 2.95L123.83 2.95Q122.78 2.95 122.93 1.9L122.93 1.9Q123.23 0 123.98-1.9L123.98-1.9Q124.38-2.9 125.01-4.2 125.63-5.5 126.48-7.1L126.48-7.1Q126.93-7.95 127.26-8.6 127.58-9.25 127.78-9.65L127.78-9.65Q128.13-10.35 128.51-11.15 128.88-11.95 129.28-12.9L129.28-12.9Q131.18-17.05 132.56-19.43 133.93-21.8 135.53-22.8L135.53-22.8Q135.63-22.9 136.08-22.83 136.53-22.75 136.96-22.6 137.38-22.45 137.48-22.25L137.48-22.25Q137.63-21.9 137.63-21.25L137.63-21.25Q137.63-19.25 135.78-16.45L135.78-16.45Q134.78-14.95 133.26-13.18 131.73-11.4 129.68-9.35L129.68-9.35 128.78-7.9Q127.28-5.5 126.46-3.8 125.63-2.1 125.83-0.8L125.83-0.8Q125.93-0.5 126.08-0.5L126.08-0.5Q126.23-0.5 126.58-0.75L126.58-0.75Q126.93-1 127.31-1.35 127.68-1.7 128.03-2.2L128.03-2.2Q128.28-2.45 128.46-2.75 128.63-3.05 128.83-3.3L128.83-3.3Q129.13-3.85 129.43-4.2L129.43-4.2Q130.38-5.8 131.03-6.45L131.03-6.45Q132.13-7.55 132.98-7.55L132.98-7.55Q133.98-7.55 134.76-6.48 135.53-5.4 136.43-3.4L136.43-3.4Q137.08-1.9 137.63-1.1L137.63-1.1Q138.18-0.35 138.68-0.35L138.68-0.35Q139.18-0.35 139.83-0.95L139.83-0.95Q140.43-1.5 140.88-1.55L140.88-1.55Q141.18-1.2 140.83-0.68 140.48-0.15 139.81 0.33 139.13 0.8 138.48 1.1 137.83 1.4 137.48 1.3L137.48 1.3Q136.08 0.9 135.31-0.13 134.53-1.15 133.78-2.8L133.78-2.8Q133.53-3.35 133.33-3.78 133.13-4.2 132.93-4.45L132.93-4.45Q132.58-4.95 131.98-4.95L131.98-4.95Q131.53-4.95 130.93-4.5L130.93-4.5Q130.33-4 129.73-3.33 129.13-2.65 128.58-1.7L128.58-1.7Q128.23-1.2 128.06-0.93 127.88-0.65 127.78-0.55L127.78-0.55Q127.53-0.2 127.01 0.48 126.48 1.15 125.78 2.15L125.78 2.15Q125.53 2.45 125.01 2.7 124.48 2.95 123.98 2.95L123.98 2.95ZM129.93-11.4L129.93-11.4Q130.08-11.3 130.68-11.88 131.28-12.45 132.06-13.38 132.83-14.3 133.61-15.33 134.38-16.35 134.83-17.15L134.83-17.15Q136.38-19.8 136.38-20.65L136.38-20.65Q136.38-21 136.13-21.15L136.13-21.15Q135.63-21.55 134.78-20.73 133.93-19.9 133.08-18.57 132.23-17.25 131.63-15.95L131.63-15.95Q131.28-15.15 130.91-14.15 130.53-13.15 130.28-12.38 130.03-11.6 129.93-11.4ZM142.08 3.3L142.08 3.3Q141.53 3.3 141.16 2.95 140.78 2.6 140.83 2.1L140.83 2.1Q140.93 0.05 141.61-1.85 142.28-3.75 143.58-6.4L143.58-6.4Q143.73-6.75 143.86-7.03 143.98-7.3 144.08-7.5L144.08-7.5Q145.18-9.85 146.33-12 147.48-14.15 148.63-16.2L148.63-16.2 149.33-17.45Q150.53-19.6 151.43-20.93 152.33-22.25 153.23-22.85L153.23-22.85Q154.38-23.55 154.63-23.55L154.63-23.55Q155.03-23.55 155.43-22.85L155.43-22.85Q155.68-22.35 154.43-20.4L154.43-20.4Q153.78-19.4 152.81-17.9 151.83-16.4 150.48-14.5L150.48-14.5Q150.23-14.15 149.66-13.28 149.08-12.4 148.13-11L148.13-11Q147.18-9.6 146.48-8.47 145.78-7.35 145.33-6.5L145.33-6.5Q144.43-4.85 143.63-2.98 142.83-1.1 142.83-0.05L142.83-0.05Q142.83 0.9 143.58 0.9L143.58 0.9Q144.78 0.9 147.43-1.15L147.43-1.15Q147.73-1.1 147.73-0.85L147.73-0.85Q147.73-0.65 147.23-0.15L147.23-0.15Q146.78 0.3 146.11 0.83 145.43 1.35 144.53 2.05L144.53 2.05 143.73 2.65Q142.93 3.3 142.08 3.3ZM157.53 1.35L157.53 1.35Q157.43 1.35 157.33 1.33 157.23 1.3 157.13 1.25L157.13 1.25Q156.43 0.9 156.23 0.25 156.03-0.4 156.13-1.4L156.13-1.4Q156.23-1.8 156.35-2.8 156.48-3.8 156.68-4.4L156.68-4.4 154.13-1.95 152.73-0.6Q151.28 0.85 150.33 0.85L150.33 0.85Q149.93 0.85 149.68 0.55L149.68 0.55Q149.23 0 149.23-0.8L149.23-0.8Q149.23-1.85 149.78-3.05 150.33-4.25 151.08-5.38 151.83-6.5 152.43-7.25L152.43-7.25Q153.93-9.1 155.35-10.15 156.78-11.2 158.33-11.2L158.33-11.2Q159.18-11.2 160-10.9 160.83-10.6 161.53-9.9L161.53-9.9 161.58-9.85Q161.58-9.7 161.33-9.55L161.33-9.55Q161.23-9.45 161.15-9.4 161.08-9.35 161.03-9.3L161.03-9.3Q160.43-8.7 159.68-7.3 158.93-5.9 158.38-4.38 157.83-2.85 157.83-1.75L157.83-1.75Q157.83-0.75 158.33-0.4L158.33-0.4Q158.58-0.25 158.88-0.25L158.88-0.25Q159.53-0.25 160.68-1.05L160.68-1.05Q160.73-1.1 160.9-1.23 161.08-1.35 161.43-1.6L161.43-1.6Q161.83-1.9 162.08-1.9L162.08-1.9Q162.33-1.9 162.33-1.7L162.33-1.7Q162.33-1.4 161.93-1L161.93-1Q161.63-0.75 161.25-0.45 160.88-0.15 160.38 0.15L160.38 0.15Q159.63 0.7 158.83 1.03 158.03 1.35 157.53 1.35ZM151.88-1.85L151.88-1.85Q152.93-1.85 155.78-4.95L155.78-4.95Q156.53-5.8 157.13-6.58 157.73-7.35 158.23-8.1L158.23-8.1Q159.13-9.55 158.83-10.1L158.83-10.1Q158.68-10.4 158.23-10.4L158.23-10.4Q157.68-10.4 156.73-9.83 155.78-9.25 154.8-8.35 153.83-7.45 153.03-6.55L153.03-6.55Q152.48-5.85 151.93-4.6 151.38-3.35 151.38-2.55L151.38-2.55Q151.38-1.85 151.88-1.85ZM165.88 0.85L165.88 0.85Q163.93 0.85 163.93-0.9L163.93-0.9Q163.93-1 163.95-1.25 163.98-1.5 164.03-1.85L164.03-1.85Q164.53-3.9 166.05-5.83 167.58-7.75 169.58-9.2L169.58-9.2Q170.33-9.8 171.98-9.8L171.98-9.8Q172.93-9.8 173.65-9.53 174.38-9.25 174.68-8.7L174.68-8.7Q174.98-8.2 174.98-7.55L174.98-7.55Q174.98-7.45 174.95-7.25 174.93-7.05 174.88-6.8L174.88-6.8Q174.98-6.85 175.2-6.85 175.43-6.85 175.78-6.9L175.78-6.9Q176.13-6.95 176.45-7 176.78-7.05 177.13-7.05L177.13-7.05 177.33-7.05Q177.88-7.05 177.45-6.63 177.03-6.2 176.33-6.1L176.33-6.1 174.63-5.9Q174.13-4.5 172.9-3.1 171.68-1.7 170.2-0.68 168.73 0.35 167.43 0.65L167.43 0.65Q166.68 0.85 165.88 0.85ZM172.28-6.6L172.28-6.6Q172.58-6.6 173-6.63 173.43-6.65 173.98-6.7L173.98-6.7Q174.03-6.8 174.03-7.15L174.03-7.15Q174.03-8.05 173.28-8.4L173.28-8.4Q172.88-8.65 172.28-8.65L172.28-8.65Q171.53-8.65 170.75-8.18 169.98-7.7 169.13-6.95L169.13-6.95Q170.18-6.6 172.28-6.6ZM167.38-0.9L167.38-0.9Q167.88-0.9 168.8-1.38 169.73-1.85 170.73-2.65 171.73-3.45 172.53-4.35L172.53-4.35Q172.78-4.6 173.03-4.98 173.28-5.35 173.58-5.75L173.58-5.75 172.38-5.6Q169.58-5.2 167.38-5.15L167.38-5.15Q166.28-3.35 166.03-2.15L166.03-2.15Q165.98-1.5 166.38-1.2 166.78-0.9 167.38-0.9ZM185.32 1.45L185.32 1.45Q184.02 1.45 184.02-0.45L184.02-0.45Q184.02-2.4 185.37-6.2L185.37-6.2Q183.77-4.15 182.2-2.58 180.62-1 179.07 0L179.07 0Q177.97 0.8 177.07 0.8L177.07 0.8Q175.87 0.8 175.87-0.85L175.87-0.85Q175.87-1.75 176.17-2.5L176.17-2.5Q176.57-3.6 177.35-5.05 178.12-6.5 179.17-7.95 180.22-9.4 181.32-10.4L181.32-10.4Q181.72-10.65 181.82-10.65L181.82-10.65Q182.17-10.65 182.17-10.25L182.17-10.25Q182.17-10.1 182.02-9.85L182.02-9.85Q181.57-9.35 180.97-8.4 180.37-7.45 179.82-6.35 179.27-5.25 178.9-4.33 178.52-3.4 178.52-2.95L178.52-2.95Q178.52-2.05 179.32-2.05L179.32-2.05Q179.67-2.05 180.07-2.3L180.07-2.3Q181.92-3.45 183.47-5.08 185.02-6.7 186.37-9.5L186.37-9.5Q186.82-9.8 187.37-9.8L187.37-9.8Q187.92-9.8 188.3-9.45 188.67-9.1 188.67-8.5L188.67-8.5Q188.67-8.05 188.42-7.45L188.42-7.45Q188.37-7.25 188.25-7.05 188.12-6.85 187.97-6.6L187.97-6.6Q187.82-6.35 187.72-6.13 187.62-5.9 187.52-5.75L187.52-5.75Q186.57-4.05 186.05-2.9 185.52-1.75 185.52-0.9L185.52-0.9Q185.52 0.1 186.42 0.1L186.42 0.1Q187.22 0.1 188.02-0.5L188.02-0.5Q188.52-0.85 188.87-0.85L188.87-0.85Q189.42-0.85 188.65-0.18 187.87 0.5 186.77 1.05L186.77 1.05Q185.72 1.45 185.32 1.45ZM195.22-10.95L195.22-10.95Q194.57-10.95 194.57-11.25L194.57-11.25Q194.57-11.5 194.95-11.98 195.32-12.45 195.82-12.8L195.82-12.8Q196.92-13.5 197.55-14 198.17-14.5 199.07-15.7L199.07-15.7Q199.12-15.6 199.12-15.3L199.12-15.3Q199.12-14.65 198.6-13.73 198.07-12.8 197.42-12.05 196.77-11.3 196.27-11.1L196.27-11.1Q195.82-10.95 195.22-10.95ZM190.77 1.3L190.77 1.3Q190.37 1.3 190.02 1 189.67 0.7 189.67 0.2L189.67 0.2Q189.67-0.85 191.12-3.65L191.12-3.65 191.67-4.75Q191.77-4.85 191.95-5.25 192.12-5.65 192.47-6.3L192.47-6.3Q192.82-7 193.02-7.55 193.22-8.1 193.32-8.6L193.32-8.6Q193.32-8.65 193.52-8.8 193.72-8.95 193.92-9.05L193.92-9.05 194.22-9.1Q194.62-9.1 194.9-8.95 195.17-8.8 195.07-8.55L195.07-8.55Q194.72-7.8 194.47-7.25 194.22-6.7 194.07-6.3L194.07-6.3 194.02-6.3Q193.47-5.05 193.1-3.93 192.72-2.8 192.77-1.8L192.77-1.8 192.82-0.45Q192.77 0.05 192.47 0.4L192.47 0.4Q192.27 0.55 191.92 0.78 191.57 1 191.02 1.25L191.02 1.25Q190.97 1.3 190.77 1.3Z" opacity="1" transform="matrix(1,0,0,1,0,0)" fill="black" class="wordmark-text-0" id="SvgjsPath3539"></path></svg></g></svg></g></svg></g></svg></g><g transform="matrix(1,0,0,1,84.7350204159524,0)"><svg viewBox="0 0 76.18347596809514 66.20262057289224" height="66.20262057289224" width="76.18347596809514"><g><svg xmlns="http://www.w3.org/2000/svg" version="1.0" viewBox="78.15765509594274 46.24828926043631 642.6896327783782 706.9671071759648" preserveAspectRatio="xMidYMid meet" x="7.9999999999999964" y="0" height="66.20262057289224" width="60.183475968095145" class="icon-icon-0" data-fill-palette-color="accent" id="SvgjsSvg3538"><g transform="translate(0.000000,800.000000) scale(0.100000,-0.100000)" fill="black" stroke="none"><path d="M3205 7534C2870 7508 2519 7445 2369 7384 2213 7320 2058 7208 1874 7025 1730 6882 1669 6806 1650 6745 1642 6723 1633 6660 1630 6605 1624 6513 1619 6496 1573 6395 1545 6335 1492 6200 1454 6095L1386 5905V5790C1385 5694 1389 5663 1410 5600 1455 5461 1437 5220 1378 5189 1346 5172 1270 5184 1194 5218L1125 5250 1179 5200C1208 5173 1256 5139 1285 5123L1338 5096 1323 5065C1285 4992 1130 4811 930 4605 865 4539 805 4470 795 4451 773 4407 779 4320 806 4283 820 4265 894 4226 1050 4155L1275 4052 1273 3994C1271 3928 1240 3821 1210 3772 1199 3754 1176 3731 1160 3722 1135 3708 1130 3699 1130 3667 1130 3613 1152 3568 1195 3533 1239 3496 1296 3480 1382 3480H1445L1400 3453C1321 3407 1292 3380 1270 3335 1244 3280 1251 3247 1296 3219 1346 3188 1397 3124 1417 3066 1443 2992 1440 2850 1411 2737 1389 2652 1389 2647 1405 2607 1446 2503 1542 2435 1690 2404 1792 2382 1962 2390 2045 2420 2231 2486 2482 2528 2751 2537L2937 2543 3037 2409C3389 1939 3596 1508 3696 1035 3722 916 3724 886 3724 683 3725 538 3728 464 3735 468 3743 473 5679 1927 5688 1935 5689 1936 5636 1990 5569 2056 4982 2632 4688 3122 4708 3491 4710 3521 4716 3530 4748 3547 4819 3588 4950 3691 5053 3790 5169 3901 5187 3908 5240 3863 5269 3839 5272 3832 5267 3796 5264 3773 5243 3717 5221 3670S5169 3539 5154 3485C5119 3354 5114 3137 5144 3025 5171 2923 5211 2831 5266 2743 5334 2633 5525 2443 5656 2357 5747 2296 5942 2190 5961 2190 5965 2190 5929 2229 5881 2277 5747 2413 5655 2567 5642 2679L5637 2724 5681 2688C5805 2588 6032 2459 6178 2406 6349 2345 6402 2336 6595 2335 6804 2335 6880 2350 7035 2424 7138 2474 7244 2546 7197 2536 7085 2511 7020 2522 6959 2577 6912 2620 6878 2681 6854 2771 6840 2823 6836 2881 6834 3080 6833 3287 6829 3341 6811 3427 6749 3723 6596 3976 6378 4141 6207 4270 6092 4296 5918 4245 5811 4213 5694 4203 5633 4219 5579 4234 5535 4276 5520 4328 5507 4369 5508 4370 5577 4507 5740 4825 5812 5113 5811 5445 5811 5774 5742 6063 5589 6376 5525 6508 5408 6690 5307 6815 5216 6928 5021 7112 4909 7192 4679 7357 4387 7460 3999 7516 3889 7531 3335 7544 3205 7534M4108 7010C4308 6992 4452 6953 4626 6871 5316 6543 5646 5746 5390 5025 5314 4813 5207 4645 5036 4474 4824 4263 4597 4137 4301 4069 4240 4054 4163 4047 4035 4043 3758 4035 3582 4071 3343 4185 3044 4327 2803 4565 2653 4863 2554 5062 2511 5238 2503 5480 2499 5629 2501 5673 2518 5775 2574 6100 2725 6381 2965 6609 3236 6865 3569 7002 3965 7019 3982 7019 4046 7015 4108 7010" fill="black"></path><path d="M4062 5983C3959 5696 3721 5006 3723 5003 3731 4995 3875 4981 3880 4987 3884 4992 3967 5227 4065 5510S4245 6030 4247 6036C4252 6049 4229 6056 4149 6065L4093 6072z" fill="black"></path><path d="M3120 5851L2755 5654V5387L3115 5199C3313 5095 3478 5011 3483 5010 3487 5010 3490 5070 3490 5144V5277L3268 5394C3145 5459 3042 5515 3038 5519S3134 5582 3260 5650L3490 5775V5913C3490 5988 3489 6050 3488 6049 3486 6049 3321 5960 3120 5851" fill="black"></path><path d="M4420 5912V5775L4650 5650C4776 5582 4876 5523 4872 5519S4765 5459 4643 5394L4420 5277V5143C4420 5070 4423 5010 4428 5010 4432 5010 4602 5095 4805 5199L5175 5388V5654L4930 5782C4795 5853 4625 5942 4553 5980L4420 6049z" fill="black"></path></g></svg></g></svg></g><g><rect width="36.5787411867571" height="5.142840469616027" y="60.05978010327622" x="160.91849638404756" fill="black"></rect><rect width="36.5787411867571" height="5.142840469616027" y="60.05978010327622" x="48.156279229195306" fill="black"></rect></g></svg></g></svg></g><g><path d="M116.731 33.972A120.826 120.826 0 0 1 278.789 33.972L273.73 33.972A115.767 115.767 0 0 0 121.79 33.972L116.731 33.972M116.731 213.228A120.826 120.826 0 0 0 278.789 213.228L273.73 213.228A115.767 115.767 0 0 1 121.79 213.228L116.731 213.228" fill="white" stroke="transparent"></path></g></svg></g><defs><mask></mask></defs></svg><rect width="395.52" height="247.2" fill="black" stroke="none" visibility="hidden"></rect></g></mask><linearGradient x1="0.054" x2="0.941" y1="0.5" y2="0.5" id="1f0ee978-226b-444b-9108-050ca50dd2f4"><stop stop-color="#26282a" offset="0"></stop><stop stop-color="#9e9fa0" offset="0.498"></stop><stop stop-color="#26282a" offset="1"></stop></linearGradient></svg><rect width="395.52" height="247.2" fill="none" stroke="none" visibility="hidden"></rect></g></svg></g></svg>